# xmcd
#
# Track frame offsets: 
#        150
#        17517
#        31029
#        41086
#        57822
#        73512
#        83604
#        95409
#        116767
#        132782
#        158443
#
# Disc length: 2335 seconds
#
# Revision: 0
# Processed by: cddbd v1.5.2PL0 Copyright (c) Steve Scherf et al.
# Submitted via: ExactAudioCopy v1.3
#
DISCID=7a091d0b
DTITLE=An American Forest - O Bronder, Donder Younder?
DYEAR=2018
DGENRE=Country
TTITLE0=Sam's House
TTITLE1=Rawhide
TTITLE2=Yonder, My Love
TTITLE3=Pretty Good Divide
TTITLE4=Ain't Been Tamed Yet
TTITLE5=Pendleton Overcoat
TTITLE6=Burnin' Starlight
TTITLE7=Yonder Mountain
TTITLE8=Timberbind (by Mike Midlo)
TTITLE9=Lady Godiva
TTITLE10=Dark To Dark
EXTD=
EXTT0=
EXTT1=
EXTT2=
EXTT3=
EXTT4=
EXTT5=
EXTT6=
EXTT7=
EXTT8=
EXTT9=
EXTT10=
PLAYORDER=
